<?xml version="1.0" encoding="UTF-8" standalone="no"?><!DOCTYPE svg PUBLIC "-//W3C//DTD SVG 1.1//EN" "http://www.w3.org/Graphics/SVG/1.1/DTD/svg11.dtd"><svg width="100%" height="100%" viewBox="0 0 2250 2250" version="1.1" xmlns="http://www.w3.org/2000/svg" xmlns:xlink="http://www.w3.org/1999/xlink" xml:space="preserve" xmlns:serif="http://www.serif.com/" style="fill-rule:evenodd;clip-rule:evenodd;stroke-linejoin:round;stroke-miterlimit:2;"><g><text x="24.255px" y="1362.22px" style="font-family:'CaviarDreams', 'Caviar Dreams', sans-serif;font-size:643.303px;">Gr<tspan x="720.015px 1089.72px " y="1362.22px 1362.22px ">et</tspan>zl</text><g><g><path d="M1800.12,1324.68c7.748,0 14.397,2.722 19.946,8.167c5.55,5.445 8.324,12.041 8.324,19.789c0,7.958 -2.774,14.659 -8.324,20.103c-5.549,5.445 -12.198,8.167 -19.946,8.167c-7.748,0 -14.397,-2.722 -19.946,-8.167c-5.549,-5.444 -8.324,-12.145 -8.324,-20.103c0,-7.748 2.775,-14.344 8.324,-19.789c5.549,-5.445 12.198,-8.167 19.946,-8.167Z" style="fill:none;fill-rule:nonzero;stroke:#000;stroke-width:12.5px;"/><path d="M1919.49,1324.68c7.748,0 14.397,2.722 19.946,8.167c5.549,5.445 8.324,12.041 8.324,19.789c0,7.958 -2.775,14.659 -8.324,20.103c-5.549,5.445 -12.198,8.167 -19.946,8.167c-7.748,0 -14.397,-2.722 -19.946,-8.167c-5.55,-5.444 -8.324,-12.145 -8.324,-20.103c-0,-7.748 2.774,-14.344 8.324,-19.789c5.549,-5.445 12.198,-8.167 19.946,-8.167Z" style="fill:#f00;fill-opacity:0.22;fill-rule:nonzero;stroke:#000;stroke-width:4.17px;"/><path d="M2038.85,1324.68c7.748,0 14.397,2.722 19.946,8.167c5.549,5.445 8.324,12.041 8.324,19.789c-0,7.958 -2.775,14.659 -8.324,20.103c-5.549,5.445 -12.198,8.167 -19.946,8.167c-7.748,0 -14.397,-2.722 -19.946,-8.167c-5.55,-5.444 -8.324,-12.145 -8.324,-20.103c-0,-7.748 2.774,-14.344 8.324,-19.789c5.549,-5.445 12.198,-8.167 19.946,-8.167Z" style="fill:#0015db;fill-opacity:0.37;fill-rule:nonzero;stroke:#000;stroke-width:4.17px;"/><path d="M2158.21,1324.68c7.749,0 14.397,2.722 19.947,8.167c5.549,5.445 8.324,12.041 8.324,19.789c-0,7.958 -2.775,14.659 -8.324,20.103c-5.55,5.445 -12.198,8.167 -19.947,8.167c-7.748,0 -14.396,-2.722 -19.946,-8.167c-5.549,-5.444 -8.324,-12.145 -8.324,-20.103c0,-7.748 2.775,-14.344 8.324,-19.789c5.55,-5.445 12.198,-8.167 19.946,-8.167Z" style="fill:#fbff36;fill-opacity:0.31;fill-rule:nonzero;stroke:#000;stroke-width:4.17px;"/></g><path d="M1938.6,1389.25l-9.992,-9.771l13.812,-2.131l-3.82,11.902Z"/><path d="M2149.08,1379.48c-54.598,21.396 -146.077,22.415 -210.951,3.056" style="fill:none;stroke:#000;stroke-width:4.17px;stroke-linecap:round;stroke-miterlimit:1.5;"/><path d="M1998.08,1346.38l12.5,6.25l-12.5,6.25l-0,-12.5Z"/><path d="M1947.76,1352.63l52.823,0" style="fill:none;stroke:#000;stroke-width:4.17px;stroke-linecap:round;stroke-miterlimit:1.5;"/><path d="M2133.31,1318.65l7.134,12.017l-13.895,-1.503l6.761,-10.514Z"/><path d="M2057.11,1330.67c27.004,-18.84 48.897,-20.642 74.922,-5.408" style="fill:none;stroke:#000;stroke-width:4.17px;stroke-linecap:round;stroke-miterlimit:1.5;"/><path d="M1901.81,1314.64l7.342,11.891l-13.918,-1.261l6.576,-10.63Z"/><path d="M1815.12,1328.89c28.511,-21.562 56.993,-23.51 85.526,-7.62" style="fill:none;stroke:#000;stroke-width:4.17px;stroke-linecap:round;stroke-miterlimit:1.5;"/></g></g></svg>