<svg width="52" height="53" viewBox="0 0 52 53" fill="none" xmlns="http://www.w3.org/2000/svg">
<path d="M26 52L36.8096 41.1904L26 9.36947e-07L15.1904 41.1904L26 52Z" fill="white" fill-opacity="0.9"/>
<path fill-rule="evenodd" clip-rule="evenodd" d="M25.1452 0.062149L26.7858 0.495673L16.0941 40.9564L26.5595 51.2165L25.3715 52.4282L14.2014 41.4771L25.1452 0.062149Z" fill="black"/>
<path fill-rule="evenodd" clip-rule="evenodd" d="M25.5413 51.8224V0.278908H26.3897V51.8224H25.5413Z" fill="black"/>
<path fill-rule="evenodd" clip-rule="evenodd" d="M34.0369 32.4841L25.5554 0.387287L26.3757 0.170525L37.1934 41.1083L36.3732 41.3251L34.2558 33.3124L26.13 36.7292L25.8011 35.9471L34.0369 32.4841Z" fill="black"/>
<path fill-rule="evenodd" clip-rule="evenodd" d="M36.3028 41.1669L25.0609 1.07753L26.6947 0.619354L37.9367 40.7087L36.3028 41.1669Z" fill="black"/>
<path fill-rule="evenodd" clip-rule="evenodd" d="M25.0294 51.9677V1.06055H26.7263V51.9677H25.0294Z" fill="black"/>
</svg>
