<svg width="487" height="440" viewBox="0 0 487 440" fill="none" xmlns="http://www.w3.org/2000/svg">
<rect opacity="0.3" x="128.465" y="99.2686" width="343.353" height="72.4077" rx="36.2038" fill="#FF9E3D" fill-opacity="0.1"/>
<rect opacity="0.3" y="214.887" width="343.353" height="72.4077" rx="36.2038" fill="#FF9E3D" fill-opacity="0.1"/>
<rect opacity="0.3" x="128.465" y="336.345" width="284.959" height="72.4077" rx="36.2038" fill="#FF9E3D" fill-opacity="0.1"/>
<path opacity="0.3" d="M159.998 99.2686C139.443 99.2686 130.412 123.794 128.465 136.056C128.465 147.735 135.472 171.092 163.501 171.092H213.135C222.478 171.092 224.036 178.489 223.646 182.187V205.544C223.646 211.617 219.753 214.303 217.807 214.887H34.452C23.3573 214.887 0.583923 223.062 0.583923 252.843C0.583923 276.667 23.1627 285.738 34.452 287.295H176.348C183.822 287.295 185.301 294.302 185.107 297.806V329.922C185.107 333.659 181.214 336.151 179.267 336.929H159.998C139.443 336.929 130.412 360.676 128.465 372.549C128.465 384.812 134.772 409.337 159.998 409.337H377.221C389.289 408.169 413.424 399.176 413.424 372.549C413.424 345.922 389.289 337.708 377.221 336.929H213.135C207.53 336.929 206.128 332.258 206.128 329.922V297.806C206.128 291.966 206.128 287.295 213.135 287.295H308.317C319.995 285.932 343.353 276.784 343.353 251.091C343.353 225.398 319.995 216.25 308.317 214.887H255.179C245.836 214.887 245.057 208.659 245.836 205.544V182.187C245.836 177.516 245.836 172.844 255.179 172.844H437.95C449.239 171.676 471.818 162.684 471.818 136.056C471.818 109.429 449.239 100.436 437.95 99.2686H159.998Z" fill="#FF9E3D" fill-opacity="0.24"/>
<path d="M186.093 163.726C172.371 163.726 161.264 152.619 161.264 138.897V128.133C161.264 114.411 172.371 103.304 186.093 103.304C199.815 103.304 210.922 114.411 210.922 128.133V138.897C210.922 152.619 199.815 163.726 186.093 163.726Z" fill="#FF9E3D"/>
<path d="M188.58 102.618C187.036 102.618 185.536 102.789 184.078 103.09C195.784 105.234 204.661 115.44 204.661 127.747V136.023C204.661 149.875 193.426 161.11 179.575 161.11C178.203 161.11 176.873 160.938 175.544 160.724C179.36 163.039 183.777 164.455 188.58 164.455C202.431 164.455 213.666 153.219 213.666 139.368V127.747C213.666 113.853 202.431 102.618 188.58 102.618V102.618Z" fill="#FF7F15"/>
<path d="M270.057 189.798L268.642 182.122C267.784 178.692 264.311 176.633 260.88 177.491L205.476 191.385C199.773 187.911 193.083 185.853 185.922 185.853C173.957 185.853 163.322 191.471 156.418 200.133L123.527 236.497C121.169 239.113 121.383 243.144 123.999 245.503L130.088 251.035C132.704 253.393 134.42 250.777 136.778 248.162L151.959 230.537L151.83 256.609L151.959 379.082C151.959 382.598 154.66 385.471 158.219 385.471H164.437C167.954 385.471 170.827 382.598 170.827 379.082L170.784 276.164H198.014L198.057 379.082C198.057 382.598 200.93 385.471 204.447 385.471H217.183C220.699 385.471 223.572 382.598 223.572 379.082V280.066H223.615V223.461C223.615 219.988 220.442 210.725 219.541 207.509L265.383 197.431C268.856 196.702 270.915 193.229 270.057 189.798V189.798Z" fill="#1B998B"/>
<path d="M186.651 273.333H167.053C163.451 273.333 160.535 276.249 160.535 279.852V380.283C160.535 381.655 160.106 383.542 158.477 383.756H165.252C168.769 383.756 171.642 382.727 171.642 379.211V275.906H186.651V273.333ZM270.057 189.798L268.642 182.122C267.999 179.549 265.855 177.705 263.367 177.362L263.968 180.536C265.04 185.51 264.44 187.311 260.752 188.254L210.322 200.605C213.238 205.236 214.138 209.438 214.095 216.814V277.622H214.052V379.897C214.01 381.097 213.323 383.542 211.094 383.713L217.226 385.6C220.742 385.6 223.615 382.727 223.615 379.211V280.195H223.658V223.59C223.658 220.116 220.485 210.854 219.584 207.637L265.426 197.56C268.856 196.702 270.915 193.229 270.057 189.798V189.798Z" fill="#128174"/>
<path d="M193.898 235.768L182.748 242.844L171.642 235.768L179.446 189.798H186.093L193.898 235.768Z" fill="#FFE67D"/>
<path d="M311.01 104.548H357.623V122.43H311.01V104.548ZM269.8 143.7H316.413V161.582H269.8V143.7ZM352.177 143.7H398.791V161.582H352.177V143.7Z" fill="#FF6500"/>
<path d="M293.128 147.13C291.241 147.13 289.697 145.586 289.697 143.7V133.794C289.697 131.907 291.241 130.363 293.128 130.363C295.015 130.363 296.558 131.907 296.558 133.794V143.7C296.558 145.586 295.015 147.13 293.128 147.13Z" fill="#003D3D"/>
<path d="M276.018 185.982L272.759 173.031C272.115 170.415 270.443 168.185 268.127 166.813C265.812 165.441 263.067 165.012 260.451 165.698L203.761 179.935C197.328 176.29 190.081 174.403 182.748 174.403C169.626 174.403 157.405 180.321 149.214 190.613L108.476 235.768C106.674 237.784 105.731 240.357 105.86 243.058C105.988 245.76 107.189 248.247 109.205 250.048L119.11 258.968C121.126 260.769 123.699 261.712 126.4 261.584C129.102 261.455 131.589 260.254 133.39 258.239L139.823 251.12V380.368C139.823 385.943 144.368 390.489 149.943 390.489H163.279C168.854 390.489 173.4 385.943 173.4 380.368V280.066H192.011V380.368C192.011 385.943 196.556 390.489 202.131 390.489H215.468C221.042 390.489 225.588 385.943 225.588 380.368V277.193C225.631 277.021 225.631 276.807 225.631 276.593V217.329C225.631 214.67 225.373 211.968 224.859 209.267L268.599 198.289C271.215 197.646 273.445 195.973 274.817 193.658C276.232 191.342 276.661 188.597 276.018 185.982V185.982ZM182.748 181.265C185.15 181.265 187.508 181.522 189.824 181.994L184.764 186.41H180.861L175.93 181.908C178.16 181.479 180.432 181.265 182.748 181.265V181.265ZM190.124 234.096L182.748 238.77L175.372 234.096L182.319 193.229H183.134L190.124 234.096ZM268.985 190.141C268.556 190.87 267.827 191.428 266.97 191.642L219.97 203.435C219.07 203.649 218.298 204.25 217.826 205.022C217.354 205.836 217.226 206.78 217.483 207.68C218.384 210.896 218.812 214.156 218.812 217.329V276.078C218.77 276.249 218.77 276.464 218.77 276.678V380.411C218.77 382.212 217.311 383.67 215.51 383.67H202.174C200.373 383.67 198.915 382.212 198.915 380.411V276.635C198.915 274.749 197.371 273.205 195.484 273.205H170.012C168.125 273.205 166.581 274.749 166.581 276.635V380.368C166.581 382.169 165.123 383.627 163.322 383.627H149.986C148.185 383.627 146.727 382.169 146.727 380.368V255.28V242.158C146.727 240.743 145.869 239.456 144.54 238.942C143.21 238.427 141.71 238.77 140.766 239.842L128.373 253.607C127.773 254.251 127.001 254.637 126.1 254.68C125.243 254.722 124.385 254.422 123.742 253.822L113.836 244.902C113.193 244.302 112.807 243.53 112.764 242.63C112.721 241.772 113.021 240.914 113.621 240.271L154.403 195.116C154.446 195.073 154.489 194.987 154.531 194.944C158.262 190.227 163.022 186.582 168.34 184.266L175.758 190.999L168.254 235.168C168.039 236.54 168.64 237.912 169.798 238.641L180.904 245.717C181.462 246.06 182.105 246.275 182.748 246.275C183.391 246.275 184.035 246.103 184.592 245.717L195.699 238.641C196.857 237.912 197.457 236.54 197.242 235.168L189.738 191.128L197.414 184.438C198.786 185.038 200.116 185.767 201.402 186.539C202.174 187.011 203.117 187.139 204.018 186.925L262.081 172.345C262.939 172.131 263.796 172.259 264.568 172.731C265.297 173.16 265.855 173.889 266.069 174.746L269.328 187.697C269.542 188.512 269.414 189.369 268.985 190.141V190.141Z" fill="#003D3D"/>
<path d="M424.734 70.9707H243.856C238.453 70.9707 234.079 75.4734 234.079 80.9623V164.326C234.079 166.213 235.622 167.757 237.509 167.757C239.396 167.757 240.94 166.213 240.94 164.326V80.9623C240.94 79.247 242.226 77.8319 243.856 77.8319H424.692C426.278 77.8319 427.608 79.247 427.608 80.9623V187.526C427.608 189.241 426.321 190.656 424.692 190.656H285.195C283.308 190.656 281.764 192.2 281.764 194.087C281.764 195.973 283.308 197.517 285.195 197.517H424.734C430.138 197.517 434.512 193.014 434.512 187.526V80.9623C434.469 75.4734 430.095 70.9707 424.734 70.9707Z" fill="#003D3D"/>
<path d="M293.128 130.363C291.241 130.363 289.697 131.907 289.697 133.794V140.269H269.843C267.956 140.269 266.412 141.813 266.412 143.699V161.581C266.412 163.468 267.956 165.012 269.843 165.012H316.456C318.343 165.012 319.887 163.468 319.887 161.581V143.699C319.887 141.813 318.343 140.269 316.456 140.269H296.601V137.224H372.075V140.269H352.22C350.333 140.269 348.79 141.813 348.79 143.699V161.581C348.79 163.468 350.333 165.012 352.22 165.012H398.833C400.72 165.012 402.264 163.468 402.264 161.581V143.699C402.264 141.813 400.72 140.269 398.833 140.269H378.979V133.794C378.979 131.907 377.435 130.363 375.548 130.363H337.769V125.903H357.623C359.51 125.903 361.054 124.359 361.054 122.473V104.591C361.054 102.704 359.51 101.16 357.623 101.16H311.01C309.123 101.16 307.579 102.704 307.579 104.591V122.473C307.579 124.359 309.123 125.903 311.01 125.903H330.822V130.363H293.128V130.363ZM312.983 147.13V158.151H273.23V147.13H312.983ZM395.317 147.13V158.151H355.565V147.13H395.317ZM314.441 118.999V107.978H354.193V118.999H314.441ZM182.748 170.587C201.702 170.587 217.097 155.192 217.097 136.238V130.792C217.097 111.838 201.702 96.4429 182.748 96.4429C163.794 96.4429 148.399 111.838 148.399 130.792V136.238C148.442 155.149 163.837 170.587 182.748 170.587V170.587ZM155.303 130.792C155.303 115.654 167.611 103.304 182.791 103.304C197.971 103.304 210.279 115.611 210.279 130.792V136.238C210.279 151.375 197.971 163.726 182.791 163.726C167.611 163.726 155.303 151.418 155.303 136.238V130.792V130.792Z" fill="#003D3D"/>
<path d="M175.844 116.298C173.871 114.968 171.213 115.44 169.883 117.412C169.112 118.527 168.597 119.599 168.125 120.972C167.396 123.202 168.597 125.646 170.87 126.375C171.299 126.504 171.77 126.589 172.199 126.589C174 126.589 175.673 125.431 176.273 123.63C176.444 123.03 176.659 122.687 176.916 122.258C178.288 120.328 177.817 117.627 175.844 116.298V116.298ZM173.786 134.18C174.386 131.907 173.057 129.548 170.741 128.905C168.468 128.305 166.11 129.634 165.466 131.95C164.051 137.267 165.638 143.314 165.81 144C166.324 145.886 168.039 147.13 169.926 147.13C170.312 147.13 170.698 147.087 171.084 146.959C173.357 146.315 174.686 143.957 174.086 141.684C173.786 140.483 173.1 136.752 173.786 134.18V134.18Z" fill="white"/>
</svg>
