<svg width="60" height="72" viewBox="0 0 60 72" fill="none" xmlns="http://www.w3.org/2000/svg">
<path d="M21.5001 7.97095C21.355 6.65823 18.7129 2.9427 12.5001 1L43.0001 71V56.5C42.7394 54.2817 42.6887 49.8555 41.0001 48C40.5001 47.5 41.5001 48 43.5001 47.5C45.5001 47 55.1639 47.3597 59.0001 32C59.694 26.7856 59.1379 15.9819 54.5001 12.5C56.5021 8.94318 56.3472 6.59315 54.0001 1C48.0794 2.9847 45.4462 6.50738 45.5001 7.97095C43.6906 6.8216 40.9696 5.45301 37.876 5.5C28.376 5.5 25.108 5.55971 21.5001 7.97095Z" fill="#FF7033" fill-opacity="0.4" stroke="#F0F7EE" stroke-width="0.2"/>
<path d="M24.0001 61.9959V71H43.0001L12.5001 1C10.5693 5.64597 10.4286 8.47807 12.3074 12.9087C7.29487 16.7441 7.02423 26.4979 7.50011 32C7.82751 35.7856 12.8501 46.4539 25.569 47.7635C25.569 48.0539 25.569 47.7635 25.569 48.0539C23.7361 50.0452 23.24 51.2059 23.1246 55.0249C19.3856 55.5938 20.6285 55.6545 17.0001 55.0249C13.7945 54.0099 9.50011 49 9.50011 49C9.50011 49 7.68378 46.3431 5.50012 45.7303C5.33076 45.6939 4.4503 45.6385 2 45.5C0.627872 45.5267 0.469869 45.791 2.00008 47L4 49C5.49731 50.5601 7.32415 54.0941 8.00011 55.5C11.8687 61.6561 15.5343 62.831 24.0001 61.9959Z" fill="#1B998B" fill-opacity="0.4" stroke="#F0F7EE" stroke-width="0.2"/>
</svg>
