<?xml version="1.0" encoding="UTF-8" standalone="no"?><!DOCTYPE svg PUBLIC "-//W3C//DTD SVG 1.1//EN" "http://www.w3.org/Graphics/SVG/1.1/DTD/svg11.dtd"><svg width="100%" height="100%" viewBox="0 0 2250 2250" version="1.1" xmlns="http://www.w3.org/2000/svg" xmlns:xlink="http://www.w3.org/1999/xlink" xml:space="preserve" xmlns:serif="http://www.serif.com/" style="fill-rule:evenodd;clip-rule:evenodd;stroke-linejoin:round;stroke-miterlimit:2;"><g><g><path d="M520.894,831.626l285.102,1363.85l-570.202,0l285.1,-1363.85Z" style="fill:none;fill-rule:nonzero;stroke:#5e7782;stroke-width:83.33px;"/><circle cx="520.895" cy="551.964" r="172.441" style="fill:none;stroke:#ff7033;stroke-width:83.33px;"/><path d="M2014.21,2195.48l-263.364,0l-0,-640.853c-0,-59.991 -11.704,-104.616 -35.115,-133.877c-21.947,-30.726 -49.748,-51.212 -83.399,-61.452c-32.19,-10.243 -63.647,-15.363 -94.372,-15.363c-29.262,0 -63.647,5.12 -103.152,15.363c-38.04,10.24 -71.694,30.726 -100.956,61.452c-29.262,29.261 -43.894,73.886 -43.894,133.877l0,640.853l-263.364,0l-0,-1097.35l263.364,0l0,79.01c24.872,-33.651 63.646,-57.063 116.319,-70.231c52.673,-14.632 103.151,-21.947 151.435,-21.947c93.642,0 174.112,19.753 241.417,59.257c68.767,39.505 121.44,94.372 158.019,164.603c38.04,70.23 57.062,152.165 57.062,245.807l0,640.853Z" style="fill:none;fill-rule:nonzero;stroke:#1b998b;stroke-width:83.33px;"/></g><g><path d="M520.894,831.626l285.102,1363.85l-570.202,0l285.1,-1363.85Z" style="fill:none;fill-rule:nonzero;stroke:#000;stroke-width:25px;"/><circle cx="520.895" cy="551.964" r="172.441" style="fill:none;stroke:#000;stroke-width:25px;"/><path d="M2014.21,2195.48l-263.364,0l-0,-640.853c-0,-59.991 -11.704,-104.616 -35.115,-133.877c-21.947,-30.726 -49.748,-51.212 -83.399,-61.452c-32.19,-10.243 -63.647,-15.363 -94.372,-15.363c-29.262,0 -63.647,5.12 -103.152,15.363c-38.04,10.24 -71.694,30.726 -100.956,61.452c-29.262,29.261 -43.894,73.886 -43.894,133.877l0,640.853l-263.364,0l-0,-1097.35l263.364,0l0,79.01c24.872,-33.651 63.646,-57.063 116.319,-70.231c52.673,-14.632 103.151,-21.947 151.435,-21.947c93.642,0 174.112,19.753 241.417,59.257c68.767,39.505 121.44,94.372 158.019,164.603c38.04,70.23 57.062,152.165 57.062,245.807l0,640.853Z" style="fill:none;fill-rule:nonzero;stroke:#000;stroke-width:25px;"/></g></g></svg>