<?xml version="1.0" encoding="UTF-8" standalone="no"?><!DOCTYPE svg PUBLIC "-//W3C//DTD SVG 1.1//EN" "http://www.w3.org/Graphics/SVG/1.1/DTD/svg11.dtd"><svg width="100%" height="100%" viewBox="0 0 2250 2250" version="1.1" xmlns="http://www.w3.org/2000/svg" xmlns:xlink="http://www.w3.org/1999/xlink" xml:space="preserve" xmlns:serif="http://www.serif.com/" style="fill-rule:evenodd;clip-rule:evenodd;stroke-linejoin:round;stroke-miterlimit:2;"><g><path id="O" d="M139.763,1123.77c-0,300.914 98.523,556.586 295.571,767.015c194.858,202.013 460.325,305.649 689.666,306.175c229.341,0.526 495.903,-101.006 686.382,-303.018c199.237,-212.534 298.855,-469.258 298.855,-770.172c0,-300.914 -98.523,-556.586 -295.571,-767.015c-192.668,-202.013 -422.557,-301.621 -689.666,-303.725c-262.73,-0 -490.429,97.504 -683.098,297.412c-199.237,214.638 -299.95,472.414 -302.139,773.328Z" style="fill:none;fill-rule:nonzero;stroke:#000;stroke-width:12.5px;"/><path id="J" d="M1053.93,375.681l0,961.745c-1.264,60.069 -12.013,116.503 -32.247,169.301c-20.234,52.798 -48.372,99.115 -84.414,138.95c-36.042,39.836 -79.355,71.451 -129.94,94.847c-50.585,23.395 -106.86,35.093 -168.827,35.093c-61.334,0 -116.819,-9.484 -166.456,-28.454c-49.636,-18.969 -92.475,-46 -128.517,-81.094c-36.041,-35.093 -64.337,-77.142 -84.888,-126.146c-20.55,-49.004 -32.722,-103.541 -36.515,-163.61c2.529,53.114 18.495,120.613 36.515,163.61c18.021,42.998 53.589,95.795 84.888,126.146c31.3,30.351 84.572,64.654 128.517,81.094c43.946,16.44 112.71,29.087 166.456,28.454c54.379,-0.632 124.565,-14.543 168.827,-35.093c44.262,-20.55 98.325,-59.753 129.94,-94.847c31.616,-35.093 66.709,-92.159 84.414,-138.95c17.704,-46.791 30.983,-116.819 32.247,-169.301l0,-961.745Z" style="fill-rule:nonzero;stroke:#000;stroke-width:12.5px;stroke-linecap:square;stroke-linejoin:bevel;"/><path d="M1053.93,375.681l-513.748,0" style="fill:none;stroke:#000;stroke-width:12.5px;stroke-linecap:round;stroke-linejoin:bevel;stroke-miterlimit:1.5;"/><path id="H" d="M1780.71,1741.55l0,-730.91l-727.142,0l-0,730.91l-0,-1363.85l-0,632.94l727.142,0l0,-640.488l0,1371.4Z" style="fill-rule:nonzero;stroke:#000;stroke-width:12.5px;"/><path id="M" d="M1055.14,379.906l324.924,408.621l398.685,-416.849c-0,0 -1.868,682.98 -1.868,682.98l1.868,-0l-1.868,-374.139l1.868,-308.841l-398.685,416.849l-325.857,-409.795l0.933,301.787l0,321.301l-0.933,-0l0.933,-621.914Z" style="fill-rule:nonzero;stroke:#000;stroke-width:12.5px;"/><path id="A" d="M1053.49,782.318l260.592,0l147.666,229.193l-408.258,-633.633l-0,681.812l-0,-277.372Z" style="fill:none;fill-rule:nonzero;stroke:#000;stroke-width:12.5px;"/><path id="A1" serif:id="A" d="M1458.58,1424.88l183.354,0l155.443,358.858l-338.797,-771.8l0,721.478l0,-308.536Z" style="fill:none;fill-rule:nonzero;stroke:#000;stroke-width:12.5px;"/><path d="M1820.88,1783.73l-23.494,-0" style="fill:none;stroke:#000;stroke-width:12.5px;stroke-linecap:round;stroke-linejoin:bevel;stroke-miterlimit:1.5;"/><path id="R" d="M1291.66,1412.82l-237.385,0l0,371.509l0,-769.358l187.675,-0c32.926,0.732 62.785,6.704 92.052,17.862c29.267,11.158 35.443,17.716 57.21,37.837c21.768,20.121 35.395,34.846 48.017,62.833c12.621,27.986 13.993,47.924 13.993,82.313c0,27.804 -5.762,52.955 -13.993,75.454c-8.232,22.499 -24.054,44.084 -38.688,62.01c-14.633,17.926 -12.234,14.182 -32.538,27.718c-20.304,13.536 -52.198,22.31 -76.343,31.822l191.195,371.509l30.182,-0l-30.182,-0l-191.195,-371.509Zm-237.385,0l212.37,0c27.072,-0.732 52.04,-6.402 74.905,-17.011c22.865,-10.61 42.529,-24.786 58.991,-42.529c16.463,-17.743 29.359,-38.413 38.688,-62.01c9.329,-23.596 13.993,-48.748 13.993,-75.454c0,-30.364 -5.579,-57.802 -16.737,-82.313c-11.158,-24.512 -26.249,-45.456 -45.273,-62.833c-19.023,-17.377 -31.366,-28.306 -57.158,-37.818c-25.792,-9.511 -63.202,-17.149 -92.104,-17.881l-187.675,-0l0,397.849Z" style="fill:none;fill-rule:nonzero;stroke:#000;stroke-width:14.58px;"/></g></svg>