<?xml version="1.0" encoding="UTF-8" standalone="no"?><!DOCTYPE svg PUBLIC "-//W3C//DTD SVG 1.1//EN" "http://www.w3.org/Graphics/SVG/1.1/DTD/svg11.dtd"><svg width="100%" height="100%" viewBox="0 0 2250 2250" version="1.1" xmlns="http://www.w3.org/2000/svg" xmlns:xlink="http://www.w3.org/1999/xlink" xml:space="preserve" xmlns:serif="http://www.serif.com/" style="fill-rule:evenodd;clip-rule:evenodd;"><g><g><path d="M889.682,415.987c-4.189,-37.59 -80.462,-143.984 -259.813,-199.614l880.477,2014.88l0,-425.626c-7.526,-63.522 -8.989,-190.266 -57.736,-243.399c-14.434,-14.318 14.434,0 72.17,-14.318c57.737,-14.317 336.712,-4.017 447.456,-443.844c20.032,-149.315 3.978,-458.681 -129.906,-558.386c57.794,-101.85 53.322,-169.143 -14.434,-329.304c-170.92,56.832 -246.935,157.705 -245.379,199.614c-52.237,-32.911 -130.787,-72.101 -220.094,-70.756c-274.247,0 -368.588,1.71 -472.741,70.756Z" style="fill:none;fill-rule:nonzero;stroke:#1b998b;stroke-width:45.83px;"/><path d="M921.002,1962.6l0,253.617l535.17,-0l-864.515,-1980.01c-54.385,130.862 -52.92,218.966 -0,343.763c-141.187,108.031 -148.81,382.764 -135.406,537.741c9.221,106.628 150.692,407.12 508.942,444.007l0,8.18c-51.627,56.088 -65.6,88.781 -68.851,196.35c-105.315,16.025 -70.307,17.734 -172.507,0c-90.292,-28.589 -211.251,-169.702 -211.251,-169.702c0,0 -51.16,-74.836 -112.667,-92.097c-4.77,-1.025 -29.57,-2.585 -98.587,-6.486c-38.648,0.752 -43.099,8.196 0.002,42.25l56.332,56.333c42.174,43.943 93.63,143.485 112.67,183.084c108.966,173.398 212.214,206.491 450.668,182.969Z" style="fill:none;fill-rule:nonzero;stroke:#ff7033;stroke-width:45.83px;"/></g><g><path d="M889.682,415.987c-4.189,-37.59 -80.462,-143.984 -259.813,-199.614l880.477,2008.63l0,-419.376c-7.526,-63.522 -8.989,-190.266 -57.736,-243.399c-14.434,-14.318 14.434,0 72.17,-14.318c57.737,-14.317 336.712,-4.017 447.456,-443.844c20.032,-149.315 3.978,-458.681 -129.906,-558.386c57.794,-101.85 53.322,-169.143 -14.434,-329.304c-170.92,56.832 -246.935,157.705 -245.379,199.614c-52.237,-32.911 -130.787,-72.101 -220.094,-70.756c-274.247,0 -368.588,1.71 -472.741,70.756Z" style="fill:none;fill-rule:nonzero;stroke:#000;stroke-width:12.5px;"/><path d="M921.002,1962.6l0,253.617l535.17,-0l-864.515,-1984.18c-54.385,130.862 -52.92,223.133 -0,347.93c-141.187,108.031 -148.81,382.764 -135.406,537.741c9.221,106.628 150.692,407.12 508.942,444.007l0,8.18c-51.627,56.088 -65.6,88.781 -68.851,196.35c-105.315,16.025 -70.307,17.734 -172.507,0c-90.292,-28.589 -211.251,-169.702 -211.251,-169.702c0,0 -51.16,-74.836 -112.667,-92.097c-4.77,-1.025 -29.57,-2.585 -98.587,-6.486c-38.648,0.752 -43.099,8.196 0.002,42.25l56.332,56.333c42.174,43.943 93.63,143.485 112.67,183.084c108.966,173.398 212.214,206.491 450.668,182.969Z" style="fill:none;fill-rule:nonzero;stroke:#000;stroke-width:12.5px;"/></g></g></svg>