<svg width="52" height="71" viewBox="0 0 52 71" fill="none" xmlns="http://www.w3.org/2000/svg">
<path d="M10.5 12.1581L19.5933 55.6581H1.40673L10.5 12.1581Z" fill="#FF7033" fill-opacity="0.4"/>
<circle cx="10.5" cy="5.5" r="5.5" fill="#1B998B" fill-opacity="0.4"/>
<path d="M51.5 55.5781H43.1V35.1381C43.1 33.2247 42.7267 31.8014 41.98 30.8681C41.28 29.8881 40.3933 29.2347 39.32 28.9081C38.2933 28.5814 37.29 28.4181 36.31 28.4181C35.3767 28.4181 34.28 28.5814 33.02 28.9081C31.8067 29.2347 30.7333 29.8881 29.8 30.8681C28.8667 31.8014 28.4 33.2247 28.4 35.1381V55.5781H20V20.5781H28.4V23.0981C29.1933 22.0248 30.43 21.2781 32.11 20.8581C33.79 20.3914 35.4 20.1581 36.94 20.1581C39.9267 20.1581 42.4933 20.7881 44.64 22.0481C46.8333 23.3081 48.5133 25.0581 49.68 27.2981C50.8933 29.5381 51.5 32.1514 51.5 35.1381V55.5781Z" fill="#1B998B" fill-opacity="0.4"/>
</svg>
